<?xml version="1.0" standalone="no"?>
<!DOCTYPE svg PUBLIC "-//W3C//DTD SVG 20010904//EN"
 "http://www.w3.org/TR/2001/REC-SVG-20010904/DTD/svg10.dtd">
<svg version="1.0" xmlns="http://www.w3.org/2000/svg"
 width="1200.000000pt" height="1200.000000pt" viewBox="0 0 1200.000000 1200.000000"
 preserveAspectRatio="xMidYMid meet">
<metadata>
Created by potrace 1.11, written by Peter Selinger 2001-2013
</metadata>
<g transform="translate(0.000000,1200.000000) scale(0.100000,-0.100000)"
fill="#000000" stroke="none">
<path d="M5898 10348 c-37 -7 -105 -34 -210 -82 -29 -13 -98 -44 -153 -69
-441 -199 -856 -411 -1445 -740 -89 -50 -536 -318 -660 -397 -260 -164 -626
-412 -860 -581 -74 -54 -153 -111 -174 -126 -109 -77 -170 -154 -206 -258 -19
-56 -23 -74 -35 -190 -3 -27 -8 -66 -10 -85 -3 -19 -7 -64 -10 -100 -3 -36 -7
-81 -10 -100 -2 -19 -7 -73 -10 -120 -3 -47 -8 -96 -10 -110 -2 -14 -7 -77
-10 -140 -3 -63 -8 -137 -11 -165 -5 -55 -9 -138 -21 -385 -10 -212 -10 -1218
0 -1420 4 -85 10 -189 12 -230 6 -129 16 -283 20 -325 2 -22 6 -80 10 -130 4
-49 8 -101 10 -115 2 -14 7 -61 10 -105 7 -86 9 -106 19 -205 25 -229 36 -272
89 -362 48 -81 93 -119 422 -354 435 -311 1092 -728 1530 -969 28 -16 84 -47
125 -70 41 -23 116 -64 165 -90 50 -26 117 -62 150 -80 155 -84 641 -323 865
-425 289 -132 364 -161 442 -173 153 -22 218 1 828 290 298 142 665 331 965
498 110 62 223 124 250 140 28 15 58 34 68 43 9 8 17 12 17 8 0 -4 6 -2 13 4
13 12 183 115 207 127 20 9 297 181 440 273 201 130 544 363 675 460 28 20 95
69 150 109 220 159 277 249 299 476 4 39 9 81 11 95 2 14 6 57 10 95 3 39 8
86 10 105 4 34 9 89 20 235 3 39 8 93 10 120 2 28 7 97 11 155 3 58 7 128 9
155 27 424 27 1504 0 1910 -1 22 -5 92 -9 155 -4 63 -8 135 -11 160 -2 25 -7
79 -10 120 -3 41 -8 95 -10 120 -2 25 -7 74 -10 110 -14 152 -24 254 -30 300
-3 19 -7 55 -10 80 -9 86 -41 163 -96 238 -40 52 -141 132 -379 300 -63 45
-121 86 -128 92 -18 16 -478 323 -592 396 -274 175 -607 373 -963 573 -49 27
-164 89 -337 180 -170 90 -720 363 -740 366 -3 1 -45 21 -95 44 -167 80 -360
160 -409 171 -54 12 -139 11 -198 -2z"/>
</g>
</svg>
